<svg width="130" height="131" viewBox="0 0 130 131" fill="none" xmlns="http://www.w3.org/2000/svg">
<path d="M64.9998 129.594C100.767 129.594 129.763 100.599 129.763 64.831C129.763 29.0634 100.767 0.0679932 64.9998 0.0679932C29.2322 0.0679932 0.236816 29.0634 0.236816 64.831C0.236816 100.599 29.2322 129.594 64.9998 129.594Z" fill="#B9C4E1"/>
<path d="M64.9997 92.84C78.9139 92.84 90.1937 76.9049 90.1937 57.248C90.1937 37.5911 78.9139 21.656 64.9997 21.656C51.0854 21.656 39.8057 37.5911 39.8057 57.248C39.8057 76.9049 51.0854 92.84 64.9997 92.84Z" fill="white"/>
<path d="M65 89.2109C43.926 89.2109 25.377 95.6509 14.543 105.414C26.414 120.155 44.6 129.595 65 129.595C85.4 129.595 103.585 120.154 115.456 105.414C104.623 95.6509 86.074 89.2109 65 89.2109Z" fill="white"/>
<path d="M70.8366 105.96H59.1626C53.8686 105.96 49.5376 101.629 49.5376 96.335V74.457C49.5376 69.163 53.8686 64.832 59.1626 64.832H70.8366C76.1306 64.832 80.4616 69.163 80.4616 74.457V96.335C80.4616 101.628 76.1306 105.96 70.8366 105.96Z" fill="white"/>
<path d="M43.285 55.7339C44.752 59.9579 44.17 63.9959 41.985 64.7549C39.8 65.5139 36.8399 62.7049 35.3739 58.4809C33.9069 54.2569 34.4889 50.2189 36.6739 49.4599C38.8589 48.7019 41.819 51.5109 43.285 55.7339Z" fill="white"/>
<path d="M86.7148 55.7339C85.2478 59.9579 85.8298 63.9959 88.0148 64.7549C90.1998 65.5139 93.1598 62.7049 94.6258 58.4809C96.0928 54.2569 95.5108 50.2189 93.3258 49.4599C91.1408 48.7019 88.1808 51.5109 86.7148 55.7339Z" fill="white"/>
<path d="M83.5318 19.981H46.4678C42.7978 19.981 39.8218 22.956 39.8218 26.627V54.224H90.1778V26.627C90.1778 22.956 87.2018 19.981 83.5318 19.981Z" fill="white"/>
<path d="M60.696 85.396H42.83C44.176 86.845 44.438 88.995 43.48 90.725L40.814 95.539L60.696 104.472V85.396Z" fill="white"/>
<path d="M69.3037 85.396H87.1697C85.8237 86.845 85.5617 88.995 86.5197 90.725L89.1857 95.539L69.3037 104.472V85.396Z" fill="white"/>
</svg>
