<svg width="158" height="158" viewBox="0 0 158 158" fill="none" xmlns="http://www.w3.org/2000/svg">
<path d="M141.591 94.8234C150.171 60.1002 128.978 24.9955 94.2553 16.4148C59.5321 7.83416 24.4274 29.0269 15.8467 63.7501C7.26605 98.4733 28.4588 133.578 63.182 142.159C97.9052 150.739 133.01 129.547 141.591 94.8234Z" fill="#B9C4E1"/>
<path d="M78.7179 100.318C92.6316 100.318 103.911 85.1955 103.911 66.541C103.911 47.8864 92.6316 32.764 78.7179 32.764C64.8042 32.764 53.5249 47.8864 53.5249 66.541C53.5249 85.1955 64.8042 100.318 78.7179 100.318Z" fill="white"/>
<path d="M78.7177 103.668C55.0887 103.668 34.7657 108.896 25.6577 116.401C37.3697 133.114 56.7607 144.052 78.7177 144.052C100.675 144.052 120.067 133.115 131.779 116.401C122.67 108.897 102.347 103.668 78.7177 103.668Z" fill="white"/>
<path d="M80.4688 120.418H76.9678C71.6738 120.418 67.3428 116.087 67.3428 110.793V88.915C67.3428 83.621 71.6738 79.29 76.9678 79.29H80.4688C85.7628 79.29 90.0938 83.621 90.0938 88.915V110.793C90.0938 116.086 85.7618 120.418 80.4688 120.418Z" fill="white"/>
<path d="M100.637 69.72C100.765 74.337 102.805 78.0259 105.193 77.9599C107.581 77.8939 109.413 74.097 109.285 69.48C109.157 64.863 107.117 61.1739 104.729 61.2399C102.341 61.3069 100.509 65.103 100.637 69.72Z" fill="white"/>
<path d="M56.7989 69.72C56.6709 74.337 54.6308 78.0259 52.2428 77.9599C49.8548 77.8939 48.0229 74.097 48.1509 69.48C48.2789 64.863 50.3189 61.1739 52.7069 61.2399C55.0949 61.3069 56.9269 65.103 56.7989 69.72Z" fill="white"/>
<path d="M79.3786 56.1019H78.0566C74.9396 56.1019 72.3896 53.5519 72.3896 50.4349V28.2699C72.3896 25.1529 74.9396 22.6029 78.0566 22.6029H79.3786C82.4956 22.6029 85.0456 25.1529 85.0456 28.2699V50.4349C85.0456 53.5519 82.4956 56.1019 79.3786 56.1019Z" fill="white"/>
<path d="M76.9698 24.611C77.3428 23.446 78.5978 22.725 79.8208 22.676C81.0428 22.628 82.2238 23.135 83.2648 23.776C85.7388 25.3 87.6348 27.579 89.7478 29.573C92.9628 32.607 96.8038 35.05 101.06 36.243C105.316 37.436 110.003 37.317 114.033 35.5C105.45 41.559 93.3798 42.233 84.1758 37.167C80.2818 35.024 76.6308 31.333 76.7918 26.892" fill="white"/>
</svg>
