<svg width="184" height="184" viewBox="0 0 184 184" fill="none" xmlns="http://www.w3.org/2000/svg">
<path d="M137.789 138.082C163.081 112.791 163.081 71.7855 137.789 46.4942C112.498 21.203 71.4929 21.203 46.2016 46.4942C20.9104 71.7855 20.9104 112.791 46.2016 138.082C71.4929 163.373 112.498 163.373 137.789 138.082Z" fill="#B9C4E1"/>
<path d="M92.0002 114.249C105.914 114.249 117.194 99.6678 117.194 81.681C117.194 63.6942 105.914 49.113 92.0002 49.113C78.0859 49.113 66.8062 63.6942 66.8062 81.681C66.8062 99.6678 78.0859 114.249 92.0002 114.249Z" fill="white"/>
<path d="M91.9999 119.274C70.7289 119.274 52.2619 125.461 42.9409 134.541C54.8179 148.318 72.3829 157.052 91.9999 157.052C111.617 157.052 129.183 148.318 141.059 134.541C131.738 125.461 113.271 119.274 91.9999 119.274Z" fill="white"/>
<path d="M93.75 133.418H90.249C84.955 133.418 80.624 129.087 80.624 123.793V101.915C80.624 96.621 84.955 92.29 90.249 92.29H93.75C99.044 92.29 103.375 96.621 103.375 101.915V123.793C103.375 129.086 99.044 133.418 93.75 133.418Z" fill="white"/>
<path d="M113.894 84.013C113.304 88.445 114.684 92.285 116.976 92.59C119.268 92.895 121.605 89.5501 122.195 85.1181C122.785 80.6861 121.405 76.846 119.113 76.541C116.82 76.236 114.484 79.582 113.894 84.013Z" fill="white"/>
<path d="M70.1058 84.013C70.6958 88.445 69.3158 92.285 67.0238 92.59C64.7318 92.895 62.3948 89.5501 61.8048 85.1181C61.2148 80.6861 62.5948 76.846 64.8868 76.541C67.1798 76.236 69.5158 79.582 70.1058 84.013Z" fill="white"/>
<path d="M94.2372 76.05H89.7642C83.1642 76.05 77.7642 70.65 77.7642 64.05V53.993C77.7642 47.393 83.1642 41.993 89.7642 41.993H94.2372C100.837 41.993 106.237 47.393 106.237 53.993V64.05C106.237 70.65 100.837 76.05 94.2372 76.05Z" fill="white"/>
<path d="M98.012 93.109C98.012 93.109 113.163 115.069 138.845 97.575C138.845 97.575 136.24 107.287 129.168 110.061C129.168 110.061 134.379 112.463 138.845 108.369C138.845 108.369 137.821 115.58 132.936 116.697C132.936 116.697 135.588 118.232 137.821 116.697C137.821 116.697 134.037 126.607 118.901 127.444C118.901 127.444 89.606 126.189 98.012 93.109Z" fill="white"/>
</svg>
