<svg width="131" height="130" viewBox="0 0 131 130" fill="none" xmlns="http://www.w3.org/2000/svg">
<path d="M65.7181 129.594C101.486 129.594 130.481 100.599 130.481 64.831C130.481 29.0634 101.486 0.0679932 65.7181 0.0679932C29.9505 0.0679932 0.955078 29.0634 0.955078 64.831C0.955078 100.599 29.9505 129.594 65.7181 129.594Z" fill="#B9C4E1"/>
<path d="M65.7179 86.791C79.6316 86.791 90.9109 72.2098 90.9109 54.223C90.9109 36.2362 79.6316 21.655 65.7179 21.655C51.8042 21.655 40.5249 36.2362 40.5249 54.223C40.5249 72.2098 51.8042 86.791 65.7179 86.791Z" fill="white"/>
<path d="M65.7182 89.2109C45.4482 89.2109 27.5982 96.5299 17.1372 107.636C29.0052 121.095 46.3642 129.595 65.7182 129.595C85.0722 129.595 102.432 121.094 114.299 107.636C103.838 96.5299 85.9882 89.2109 65.7182 89.2109Z" fill="white"/>
<path d="M67.4693 105.96H63.9683C58.6743 105.96 54.3433 101.629 54.3433 96.335V74.457C54.3433 69.163 58.6743 64.832 63.9683 64.832H67.4693C72.7633 64.832 77.0943 69.163 77.0943 74.457V96.335C77.0943 101.628 72.7623 105.96 67.4693 105.96Z" fill="white"/>
<path d="M44.0032 55.7339C45.4702 59.9579 44.8882 63.9959 42.7032 64.7549C40.5182 65.5139 37.5582 62.7049 36.0922 58.4809C34.6252 54.2569 35.2072 50.2189 37.3922 49.4599C39.5772 48.7019 42.5372 51.5109 44.0032 55.7339Z" fill="white"/>
<path d="M87.433 55.7339C85.966 59.9579 86.548 63.9959 88.733 64.7549C90.918 65.5139 93.878 62.7049 95.344 58.4809C96.811 54.2569 96.229 50.2189 94.044 49.4599C91.859 48.7019 88.9 51.5109 87.433 55.7339Z" fill="white"/>
<path d="M96.6261 58.548C96.0731 50.507 96.3471 42.254 93.7591 34.62C90.8511 26.043 84.1551 18.707 75.6661 15.552C67.1761 12.397 57.0431 13.697 49.9491 19.328C47.4631 21.301 45.2291 24.133 45.4791 27.297C41.1711 25.839 36.3671 28.899 34.3541 32.977C32.3401 37.055 32.4391 41.822 32.7261 46.361C33.5651 59.664 35.5931 73.303 31.9951 86.124C43.0351 86.458 54.0761 86.792 65.1171 87.127C68.6521 87.234 72.1911 87.341 75.7241 87.189C84.7401 86.8 94.0841 84.768 102.575 87.825C99.3181 78.383 97.3121 68.512 96.6261 58.548Z" fill="white"/>
</svg>
