<svg width="156" height="156" viewBox="0 0 156 156" fill="none" xmlns="http://www.w3.org/2000/svg">
<path d="M141.391 92.3988C149.385 57.5361 127.604 22.7938 92.741 14.7998C57.8783 6.8057 23.1361 28.587 15.142 63.4497C7.14795 98.3124 28.9293 133.055 63.792 141.049C98.6547 149.043 133.397 127.261 141.391 92.3988Z" fill="#B9C4E1"/>
<path d="M78.2819 104.543C92.1956 104.543 103.475 88.9204 103.475 69.649C103.475 50.3776 92.1956 34.755 78.2819 34.755C64.3682 34.755 53.0889 50.3776 53.0889 69.649C53.0889 88.9204 64.3682 104.543 78.2819 104.543Z" fill="white"/>
<path d="M77.8842 102.31C56.7962 102.31 37.9443 107.364 25.4062 115.303C37.1362 131.869 56.4393 142.694 78.2823 142.694C99.9713 142.694 119.155 132.022 130.909 115.654C118.375 107.513 99.2812 102.31 77.8842 102.31Z" fill="white"/>
<path d="M82.1178 119.059H74.4448C69.1508 119.059 64.8198 114.728 64.8198 109.434V87.556C64.8198 82.262 69.1508 77.931 74.4448 77.931H82.1178C87.4118 77.931 91.7428 82.262 91.7428 87.556V109.434C91.7428 114.728 87.4118 119.059 82.1178 119.059Z" fill="white"/>
<path d="M57.0669 71.631C57.8209 77.225 56.5789 82.076 54.2929 82.465C52.0069 82.854 49.5419 78.634 48.7869 73.04C48.0329 67.446 49.2749 62.595 51.5609 62.206C53.8469 61.817 56.3129 66.037 57.0669 71.631Z" fill="white"/>
<path d="M99.4969 71.631C98.7429 77.225 99.9849 82.076 102.271 82.465C104.557 82.854 107.022 78.634 107.777 73.04C108.531 67.446 107.289 62.595 105.003 62.206C102.717 61.817 100.251 66.037 99.4969 71.631Z" fill="white"/>
<path d="M53.9692 68.276C53.1222 62.69 52.2753 57.104 51.4273 51.519C51.1193 49.491 50.8222 47.354 51.5632 45.441C52.3032 43.528 54.4752 42.005 56.3962 42.723C55.6272 38.837 59.9262 35.967 63.6722 34.678C69.9492 32.517 76.6803 31.417 83.2633 32.268C89.8473 33.119 96.2753 36.031 100.713 40.968C102.118 42.531 103.328 44.306 103.997 46.297C105.285 50.13 104.465 54.313 103.635 58.27C102.975 61.414 102.316 64.558 101.656 67.702C101.506 68.42 101.337 69.173 100.847 69.719C100.066 70.589 98.7492 70.654 97.5802 70.656C85.0882 70.683 72.5952 70.71 60.1032 70.737C57.7542 70.742 54.6882 70.163 54.3782 67.835" fill="white"/>
</svg>
