<svg width="130" height="131" viewBox="0 0 130 131" fill="none" xmlns="http://www.w3.org/2000/svg">
<path d="M64.8841 130.052C100.652 130.052 129.647 101.057 129.647 65.289C129.647 29.5214 100.652 0.526001 64.8841 0.526001C29.1165 0.526001 0.121094 29.5214 0.121094 65.289C0.121094 101.057 29.1165 130.052 64.8841 130.052Z" fill="#B9C4E1"/>
<path d="M64.8839 87.249C78.7976 87.249 90.0769 72.6678 90.0769 54.681C90.0769 36.6942 78.7976 22.113 64.8839 22.113C50.9702 22.113 39.6909 36.6942 39.6909 54.681C39.6909 72.6678 50.9702 87.249 64.8839 87.249Z" fill="white"/>
<path d="M64.8842 91.902C41.6812 91.902 22.1622 98.808 16.3872 108.191C28.2522 121.594 45.5762 130.053 64.8842 130.053C84.1922 130.053 101.516 121.594 113.381 108.191C107.606 98.807 88.0872 91.902 64.8842 91.902Z" fill="white"/>
<path d="M66.6343 106.418H63.1333C57.8393 106.418 53.5083 102.087 53.5083 96.793V74.915C53.5083 69.621 57.8393 65.29 63.1333 65.29H66.6343C71.9283 65.29 76.2593 69.621 76.2593 74.915V96.793C76.2593 102.086 71.9283 106.418 66.6343 106.418Z" fill="white"/>
<path d="M43.5553 57.66C44.4483 62.041 43.3353 65.967 41.0693 66.429C38.8033 66.891 36.2423 63.714 35.3493 59.333C34.4563 54.952 35.5693 51.026 37.8353 50.564C40.1013 50.102 42.6623 53.279 43.5553 57.66Z" fill="white"/>
<path d="M86.2131 57.66C85.3201 62.041 86.4331 65.967 88.6991 66.429C90.9651 66.891 93.5261 63.714 94.4191 59.333C95.3121 54.952 94.1991 51.026 91.9331 50.564C89.6671 50.102 87.1061 53.279 86.2131 57.66Z" fill="white"/>
<path d="M96.3412 67.411C95.7682 59.007 96.2012 50.387 93.6292 42.365C90.8252 33.619 84.2522 26.284 76.1022 22.099C65.9522 17.353 56.3982 20.894 54.2232 21.827C45.8182 25.959 39.0073 33.421 36.1403 42.364C33.5683 50.385 34.0013 59.006 33.4283 67.41C32.8553 75.814 30.9532 84.721 24.9062 90.586C26.5512 91.427 28.7612 90.937 29.8962 89.478C29.9112 90.268 29.9272 91.058 29.9422 91.848C31.4802 92.159 33.1653 91.081 33.5283 89.554C33.7923 90.883 35.1233 91.911 36.4753 91.832C37.8273 91.753 39.0292 90.576 39.1372 89.226C38.9592 90.545 40.6842 91.452 41.9472 91.033C43.2102 90.614 44.0292 89.424 44.7532 88.307C44.7192 90.13 47.1782 91.432 48.6662 90.378C48.4862 91.359 49.6902 92.06 50.6862 92.008C51.6822 91.956 52.6413 91.49 53.6353 91.571C55.5653 91.726 57.2982 93.877 59.0642 93.086C59.8362 92.74 60.5402 91.85 61.3242 92.169C61.7972 92.361 61.9922 92.911 62.3152 93.306C62.9242 94.05 63.9663 94.141 64.8853 93.803C65.8043 94.14 66.8462 94.05 67.4552 93.306C67.7782 92.911 67.9733 92.361 68.4463 92.169C69.2303 91.85 69.9332 92.74 70.7062 93.086C72.4722 93.878 74.2063 91.727 76.1353 91.571C77.1293 91.491 78.0883 91.956 79.0843 92.008C80.0803 92.06 81.2832 91.359 81.1042 90.378C82.5922 91.432 85.0512 90.13 85.0172 88.307C85.7422 89.423 86.5602 90.614 87.8232 91.033C89.0862 91.452 90.8112 90.545 90.6332 89.226C90.7412 90.576 91.9433 91.753 93.2953 91.832C94.6483 91.911 95.9782 90.882 96.2422 89.554C96.6042 91.08 98.2902 92.159 99.8282 91.848C99.8432 91.058 99.8592 90.268 99.8742 89.478C101.008 90.936 103.219 91.427 104.864 90.586C98.8163 84.722 96.9142 75.815 96.3412 67.411Z" fill="white"/>
</svg>
