<svg width="184" height="184" viewBox="0 0 184 184" fill="none" xmlns="http://www.w3.org/2000/svg">
<path d="M137.511 137.725C162.802 112.434 162.802 71.4285 137.511 46.1372C112.219 20.846 71.2141 20.846 45.9228 46.1372C20.6315 71.4285 20.6315 112.434 45.9228 137.725C71.2141 163.016 112.219 163.016 137.511 137.725Z" fill="#B9C4E1"/>
<path d="M91.7179 113.891C105.632 113.891 116.911 99.3098 116.911 81.323C116.911 63.3362 105.632 48.755 91.7179 48.755C77.8042 48.755 66.5249 63.3362 66.5249 81.323C66.5249 99.3098 77.8042 113.891 91.7179 113.891Z" fill="white"/>
<path d="M91.7177 116.31C70.6437 116.31 52.0947 122.75 41.2617 132.513C53.1327 147.254 71.3187 156.694 91.7177 156.694C112.118 156.694 130.304 147.253 142.174 132.513C131.341 122.75 112.792 116.31 91.7177 116.31Z" fill="white"/>
<path d="M94.5308 133.059H88.9058C83.6118 133.059 79.2808 128.728 79.2808 123.434V101.556C79.2808 96.262 83.6118 91.931 88.9058 91.931H94.5308C99.8248 91.931 104.156 96.262 104.156 101.556V123.434C104.156 128.728 99.8248 133.059 94.5308 133.059Z" fill="white"/>
<path d="M70.0027 82.834C71.4697 87.058 70.8877 91.096 68.7027 91.855C66.5177 92.614 63.5577 89.805 62.0917 85.581C60.6247 81.357 61.2067 77.319 63.3917 76.56C65.5767 75.801 68.5367 78.61 70.0027 82.834Z" fill="white"/>
<path d="M113.433 82.834C111.966 87.058 112.548 91.096 114.733 91.855C116.918 92.614 119.878 89.805 121.344 85.581C122.811 81.357 122.229 77.319 120.044 76.56C117.859 75.801 114.9 78.61 113.433 82.834Z" fill="white"/>
<path d="M69.669 82.6969C66.395 76.7419 63.027 70.4239 63.195 63.6309C63.363 56.8379 68.535 49.6669 75.326 49.9139C76.511 49.9569 77.699 50.2179 78.872 50.0509C81.221 49.7159 82.961 47.7969 84.866 46.3829C89.163 43.1949 95.146 42.4389 100.101 44.4569C103.163 45.7039 105.755 47.8859 108.741 49.3049C114.305 51.9489 121.162 51.6719 126.494 48.5869C125.382 50.6789 123.499 52.3509 121.29 53.2079C123.327 53.8579 125.584 53.7949 127.582 53.0329C126.378 55.2139 124.385 56.9499 122.059 57.8439C123.783 57.9629 125.507 58.0819 127.232 58.1999C125.761 60.2829 123.659 61.9149 121.276 62.8229C122.627 62.8669 123.978 62.9109 125.33 62.9539C124.323 65.9349 121.714 68.3209 118.655 69.0569C119.526 69.0689 120.398 69.0809 121.269 69.0919C118.414 73.2109 115.56 77.3299 112.705 81.4489C111.889 82.6259 111.042 83.8339 109.837 84.6069C108.836 85.2489 107.657 85.5439 106.496 85.8039C98.04 87.6999 89.288 88.2699 80.658 87.4859C77.706 87.2179 74.618 86.7319 72.273 84.9199C69.928 83.1079 68.67 79.5649 70.285 77.0779" fill="white"/>
<path d="M75.4769 122.464C75.6629 119.046 76.0889 115.642 76.7509 112.284C78.4399 114.216 81.3079 114.458 83.8719 114.562C87.7539 114.72 91.6359 114.878 95.5179 115.035C95.9699 117.683 96.2849 120.797 94.3719 122.683C93.4849 123.558 92.2599 123.991 91.0599 124.325C88.4439 125.053 85.7309 125.432 83.0149 125.449C79.7929 125.47 75.9539 124.504 74.9219 121.451C75.2719 121.164 75.6209 120.877 75.9709 120.59" fill="white"/>
<path d="M107.959 122.464C107.773 119.046 107.347 115.642 106.686 112.284C104.997 114.216 102.129 114.458 99.565 114.562C95.683 114.72 91.801 114.878 87.919 115.035C87.467 117.683 87.152 120.797 89.065 122.683C89.953 123.558 91.177 123.991 92.377 124.325C94.993 125.053 97.706 125.432 100.422 125.449C103.644 125.47 107.484 124.504 108.515 121.451C108.165 121.164 107.816 120.877 107.466 120.59" fill="white"/>
</svg>
