<svg width="131" height="130" viewBox="0 0 131 130" fill="none" xmlns="http://www.w3.org/2000/svg">
<path d="M65.282 129.594C101.05 129.594 130.045 100.599 130.045 64.831C130.045 29.0634 101.05 0.0679932 65.282 0.0679932C29.5144 0.0679932 0.519043 29.0634 0.519043 64.831C0.519043 100.599 29.5144 129.594 65.282 129.594Z" fill="#B9C4E1"/>
<path d="M65.2819 89.21C79.1956 89.21 90.4749 74.0875 90.4749 55.433C90.4749 36.7785 79.1956 21.656 65.2819 21.656C51.3682 21.656 40.0889 36.7785 40.0889 55.433C40.0889 74.0875 51.3682 89.21 65.2819 89.21Z" fill="white"/>
<path d="M65.282 94.7939C43.659 94.7939 25.195 100.625 17.793 108.849C29.621 121.604 46.515 129.595 65.282 129.595C84.049 129.595 100.943 121.604 112.772 108.849C105.369 100.624 86.905 94.7939 65.282 94.7939Z" fill="white"/>
<path d="M67.0323 105.96H63.5312C58.2372 105.96 53.9062 101.629 53.9062 96.335V74.457C53.9062 69.163 58.2372 64.832 63.5312 64.832H67.0323C72.3263 64.832 76.6573 69.163 76.6573 74.457V96.335C76.6573 101.628 72.3263 105.96 67.0323 105.96Z" fill="white"/>
<path d="M86.5891 58.622C85.8211 63.027 87.0461 66.919 89.3241 67.316C91.6021 67.713 94.0721 64.465 94.8391 60.06C95.6071 55.656 94.3831 51.763 92.1041 51.366C89.8261 50.969 87.3561 54.218 86.5891 58.622Z" fill="white"/>
<path d="M43.9753 58.622C44.7433 63.027 43.5183 66.919 41.2403 67.316C38.9623 67.713 36.4923 64.465 35.7253 60.06C34.9573 55.656 36.1823 51.763 38.4603 51.366C40.7383 50.969 43.2073 54.218 43.9753 58.622Z" fill="white"/>
<path d="M44.982 58.915C42.044 61.21 37.014 59.706 35.818 56.175C34.624 57.837 31.844 57.996 30.469 56.481C29.094 54.966 29.52 52.214 31.289 51.186C29.77 50.657 28.721 49.016 28.879 47.416C29.037 45.816 30.386 44.411 31.978 44.189C30.57 42.751 29.225 41.031 29.135 39.02C29.044 37.01 30.822 34.852 32.787 35.288C31.632 34.301 32.059 32.28 33.233 31.315C34.407 30.35 36.012 30.15 37.523 29.989C36.183 29.963 35.374 28.244 35.853 26.993C36.332 25.741 37.646 24.998 38.947 24.68C42.284 23.864 46.385 24.998 48.811 22.565C49.312 22.063 49.699 21.433 50.302 21.059C51.289 20.447 52.557 20.68 53.706 20.512C54.855 20.344 56.114 19.26 55.613 18.212C57.197 18.737 58.921 18.83 60.553 18.479C61.162 18.348 61.791 18.155 62.397 18.302C62.923 18.43 63.355 18.797 63.733 19.184C66.372 21.883 67.243 25.811 67.831 29.54C68.67 34.862 69.164 40.239 69.309 45.626C69.385 48.446 69.332 51.403 67.984 53.881C66.389 56.813 63.229 58.571 60.037 59.547C55.158 61.038 49.833 61.035 44.956 59.538" fill="white"/>
<path d="M85.5823 58.915C88.5203 61.21 93.5503 59.706 94.7463 56.175C95.9393 57.837 98.7203 57.996 100.095 56.481C101.47 54.966 101.044 52.214 99.2753 51.186C100.794 50.657 101.843 49.016 101.685 47.416C101.527 45.816 100.178 44.411 98.5863 44.189C99.9943 42.751 101.339 41.031 101.429 39.02C101.52 37.01 99.7423 34.852 97.7773 35.288C98.9323 34.301 98.5053 32.28 97.3313 31.315C96.1573 30.35 94.5523 30.15 93.0413 29.989C94.3813 29.963 95.1903 28.244 94.7113 26.993C94.2323 25.741 92.9183 24.998 91.6173 24.68C88.2803 23.864 84.1793 24.998 81.7533 22.565C81.2523 22.063 80.8653 21.433 80.2623 21.059C79.2753 20.447 78.0073 20.68 76.8583 20.512C75.7093 20.344 74.4503 19.26 74.9513 18.212C73.3673 18.737 71.6433 18.83 70.0123 18.479C69.4033 18.348 68.7743 18.155 68.1683 18.302C67.6423 18.43 67.2103 18.797 66.8323 19.184C64.1933 21.883 63.3223 25.811 62.7343 29.54C61.8953 34.862 61.4013 40.239 61.2563 45.626C61.1803 48.446 61.2323 51.403 62.5813 53.881C64.1763 56.813 67.3363 58.571 70.5283 59.547C75.4073 61.038 80.7323 61.035 85.6093 59.538" fill="white"/>
</svg>
