<svg width="130" height="130" viewBox="0 0 130 130" fill="none" xmlns="http://www.w3.org/2000/svg">
<path d="M64.9998 129.694C100.767 129.694 129.763 100.699 129.763 64.931C129.763 29.1634 100.767 0.167969 64.9998 0.167969C29.2322 0.167969 0.236816 29.1634 0.236816 64.931C0.236816 100.699 29.2322 129.694 64.9998 129.694Z" fill="#B9C4E1"/>
<path d="M64.9997 86.891C78.9139 86.891 90.1937 72.3098 90.1937 54.323C90.1937 36.3362 78.9139 21.755 64.9997 21.755C51.0854 21.755 39.8057 36.3362 39.8057 54.323C39.8057 72.3098 51.0854 86.891 64.9997 86.891Z" fill="white"/>
<path d="M64.9996 129.694C83.4386 129.694 100.065 121.975 111.86 109.608C105.551 97.8389 86.9596 89.3099 64.9996 89.3099C43.0396 89.3099 24.4486 97.8389 18.1396 109.608C29.9346 121.975 46.5606 129.694 64.9996 129.694Z" fill="white"/>
<path d="M66.75 106.059H63.249C57.955 106.059 53.624 101.728 53.624 96.4339V74.5559C53.624 69.2619 57.955 64.9309 63.249 64.9309H66.75C72.044 64.9309 76.375 69.2619 76.375 74.5559V96.4339C76.375 101.728 72.044 106.059 66.75 106.059Z" fill="white"/>
<path d="M91.275 83.981C95.568 76.583 98.126 67.327 98.126 57.276C98.126 33.045 83.295 13.403 65 13.403C46.705 13.403 31.874 33.046 31.874 57.276C31.874 67.328 34.432 76.584 38.725 83.981H91.275Z" fill="white"/>
</svg>
