<svg width="24" height="24" viewBox="0 0 24 24" fill="none" xmlns="http://www.w3.org/2000/svg">
<g clip-path="url(#clip0_500_24735)">
<path d="M9.29999 12C9.29999 13.494 10.506 14.7 12 14.7C13.494 14.7 14.7 13.494 14.7 12C14.7 10.506 13.494 9.3 12 9.3C10.506 9.3 9.29999 10.506 9.29999 12Z" fill="black"/>
<path d="M8.4 9.3C8.4 8.805 7.995 8.4 7.5 8.4H5.781C7.023 6.249 9.345 4.8 12 4.8C15.141 4.8 17.805 6.816 18.786 9.624C18.912 9.975 19.263 10.2 19.632 10.2C20.244 10.2 20.694 9.597 20.496 9.021C19.263 5.511 15.924 3 12 3C9.057 3 6.438 4.422 4.8 6.609V5.7C4.8 5.205 4.395 4.8 3.9 4.8C3.405 4.8 3 5.205 3 5.7V9.3C3 9.795 3.405 10.2 3.9 10.2H7.5C7.995 10.2 8.4 9.795 8.4 9.3ZM15.6 14.7C15.6 15.195 16.005 15.6 16.5 15.6H18.219C16.977 17.751 14.655 19.2 12 19.2C8.859 19.2 6.195 17.184 5.214 14.376C5.1484 14.2053 5.03224 14.0586 4.88107 13.9557C4.72989 13.8528 4.55089 13.7985 4.368 13.8C3.756 13.8 3.306 14.403 3.504 14.979C4.737 18.489 8.076 21 12 21C14.943 21 17.562 19.578 19.2 17.391V18.3C19.2 18.795 19.605 19.2 20.1 19.2C20.595 19.2 21 18.795 21 18.3V14.7C21 14.205 20.595 13.8 20.1 13.8H16.5C16.005 13.8 15.6 14.205 15.6 14.7Z" fill="black"/>
</g>
<defs>
<clipPath id="clip0_500_24735">
<rect width="18" height="18" fill="white" transform="translate(3 3)"/>
</clipPath>
</defs>
</svg>
