<svg width="24" height="24" viewBox="0 0 24 24" fill="none" xmlns="http://www.w3.org/2000/svg">
<path d="M6.94998 16.7C7.69556 16.7 8.29998 16.0956 8.29998 15.35C8.29998 14.6044 7.69556 14 6.94998 14C6.20439 14 5.59998 14.6044 5.59998 15.35C5.59998 16.0956 6.20439 16.7 6.94998 16.7Z" fill="#212121"/>
<path d="M15.05 16.7C15.7956 16.7 16.4 16.0956 16.4 15.35C16.4 14.6044 15.7956 14 15.05 14C14.3044 14 13.7 14.6044 13.7 15.35C13.7 16.0956 14.3044 16.7 15.05 16.7Z" fill="#212121"/>
<circle cx="18.5" cy="6.5" r="3.875" stroke="black" stroke-width="1.25"/>
<path fill-rule="evenodd" clip-rule="evenodd" d="M18.5 9C18.2239 9 18 8.73137 18 8.4L18 6.6C18 6.26863 18.2239 6 18.5 6C18.7761 6 19 6.26863 19 6.6L19 8.4C19 8.73137 18.7761 9 18.5 9Z" fill="black"/>
<rect x="18" y="4" width="1" height="1" rx="0.5" fill="black"/>
<path fill-rule="evenodd" clip-rule="evenodd" d="M12 6.8C12 6.30294 11.5971 5.9 11.1 5.9H11H6.8969C6.33025 5.8995 5.77785 6.07758 5.3182 6.40896C4.85854 6.74033 4.515 7.20813 4.3364 7.7459L3.1052 11.4404C2.77815 11.5776 2.49885 11.8083 2.30226 12.1035C2.10567 12.3987 2.00053 12.7453 2 13.1V17.6C2 18.2777 2.3807 18.8618 2.9351 19.1687C2.93113 19.1889 2.9258 19.2084 2.9205 19.2279C2.9102 19.2657 2.9 19.3032 2.9 19.3442V21.2C2.9 21.4387 2.99482 21.6676 3.1636 21.8364C3.33239 22.0052 3.56131 22.1 3.8 22.1H4.7C4.93869 22.1 5.16761 22.0052 5.3364 21.8364C5.50518 21.6676 5.6 21.4387 5.6 21.2V19.4H16.4V21.2C16.4 21.4387 16.4948 21.6676 16.6636 21.8364C16.8324 22.0052 17.0613 22.1 17.3 22.1H18.2C18.4387 22.1 18.6676 22.0052 18.8364 21.8364C19.0052 21.6676 19.1 21.4387 19.1 21.2V19.3442C19.1 19.3028 19.0896 19.2646 19.0792 19.2264C19.074 19.2073 19.0688 19.1882 19.0649 19.1687C19.347 19.0149 19.5825 18.7882 19.747 18.5123C19.9115 18.2363 19.9989 17.9213 20 17.6V14.8996C20 14.4028 19.5972 14 19.1004 14C18.6034 14 18.2005 14.403 18.2007 14.9L18.2018 17.6H3.8V13.1H13.1C13.5971 13.1 14 12.6971 14 12.2C14 11.7029 13.5971 11.3 13.1 11.3H5.0483L6.0428 8.3156C6.10251 8.13631 6.21714 7.98037 6.37044 7.86988C6.52374 7.75939 6.70793 7.69995 6.8969 7.7H10.9995H11.1C11.5971 7.7 12 7.29706 12 6.8Z" fill="#212121"/>
</svg>
