<svg width="48" height="48" viewBox="0 0 48 48" fill="none" xmlns="http://www.w3.org/2000/svg">
<rect width="48" height="48" rx="24" fill="#FAFAFA"/>
<g clip-path="url(#clip0_4730_11692)">
<rect x="31.6667" y="27.7334" width="5.83333" height="6.93333" rx="1.41667" fill="#212121"/>
<rect x="10" y="27.7334" width="5.83333" height="6.93333" rx="1.41667" fill="#212121"/>
<path d="M10 22.9251C10 21.7514 10.9514 20.8 12.125 20.8H35.375C36.5486 20.8 37.5 21.7514 37.5 22.925V29.0987C37.5 29.7806 36.9472 30.3334 36.2653 30.3334H11.2347C10.5528 30.3334 10 29.7806 10 29.0987V22.9251Z" fill="#1E88E5"/>
<path d="M30.5128 21.6667H16.987C16.4586 21.6667 16.1163 22.2244 16.3554 22.6956L17.3957 24.7456C17.5164 24.9835 17.7606 25.1334 18.0274 25.1334H29.4725C29.7392 25.1334 29.9834 24.9835 30.1041 24.7456L31.1445 22.6956C31.3836 22.2244 31.0412 21.6667 30.5128 21.6667Z" fill="#1976D2"/>
<rect x="11.6667" y="18.2" width="4.16667" height="2.6" rx="1.3" fill="#424242"/>
<rect x="31.6667" y="18.2" width="4.16667" height="2.6" rx="1.3" fill="#424242"/>
<path d="M16.5093 13.8409C16.6784 13.3384 17.1494 13 17.6795 13H29.8207C30.3508 13 30.8218 13.3384 30.9909 13.8409L33.3334 20.8H14.1667L16.5093 13.8409Z" fill="#1E88E5"/>
<path d="M17.7313 14.7328C17.8925 14.2175 18.3698 13.8667 18.9097 13.8667H28.5902C29.1301 13.8667 29.6074 14.2175 29.7686 14.7328L31.3788 19.8802C31.5215 20.3364 31.1808 20.8 30.7028 20.8H16.797C16.3191 20.8 15.9783 20.3364 16.121 19.8802L17.7313 14.7328Z" fill="#E3F2FD"/>
<path d="M17.5887 14.757C17.7419 14.2295 18.2251 13.8667 18.7744 13.8667H23.7255C24.2747 13.8667 24.758 14.2295 24.9112 14.757L26.4034 19.8941C26.5351 20.3473 26.1951 20.8 25.7232 20.8H16.7766C16.3047 20.8 15.9648 20.3473 16.0964 19.8941L17.5887 14.757Z" fill="#BBDEFB"/>
<path d="M17.9217 28.48L18.7977 26.43C18.9092 26.1692 19.1655 26 19.4491 26H28.8843C29.1679 26 29.4242 26.1692 29.5356 26.43L30.4117 28.48C30.6114 28.9473 30.2685 29.4667 29.7603 29.4667H18.573C18.0648 29.4667 17.7219 28.9474 17.9217 28.48Z" fill="#1976D2"/>
<path d="M20.238 28.5756L20.7856 26.5256C20.8683 26.2157 21.1491 26 21.4699 26H26.8634C27.1842 26 27.465 26.2157 27.5478 26.5256L28.0953 28.5756C28.2154 29.0253 27.8765 29.4667 27.411 29.4667H20.9224C20.4568 29.4667 20.1179 29.0253 20.238 28.5756Z" fill="#1565C0"/>
<path d="M12.0561 23.5051C11.8696 23.0398 12.2123 22.5334 12.7136 22.5334H14.3125C14.602 22.5334 14.8623 22.7095 14.97 22.9783L15.4441 24.1616C15.6305 24.6269 15.2878 25.1334 14.7866 25.1334H13.1877C12.8982 25.1334 12.6378 24.9572 12.5302 24.6885L12.0561 23.5051Z" fill="white"/>
<path d="M32.5302 22.9783C32.6378 22.7095 32.8982 22.5334 33.1877 22.5334H34.7866C35.2878 22.5334 35.6305 23.0398 35.4441 23.5051L34.97 24.6885C34.8623 24.9572 34.602 25.1334 34.3125 25.1334H32.7136C32.2123 25.1334 31.8696 24.6269 32.0561 24.1616L32.5302 22.9783Z" fill="white"/>
</g>
<defs>
<clipPath id="clip0_4730_11692">
<rect width="28" height="22" fill="white" transform="translate(10 13)"/>
</clipPath>
</defs>
</svg>
