<svg width="40" height="40" viewBox="0 0 40 40" fill="none" xmlns="http://www.w3.org/2000/svg">
<rect width="40" height="40" rx="20" fill="#EF5350"/>
<g clip-path="url(#clip0_4486_75409)">
<path d="M26.364 15.4543L21.8183 20L26.364 24.5457C26.6051 24.7868 26.7405 25.1138 26.7405 25.4548C26.7405 25.7958 26.6051 26.1228 26.364 26.364C26.1228 26.6051 25.7958 26.7405 25.4548 26.7405C25.1138 26.7405 24.7868 26.6051 24.5457 26.364L20 21.8183L15.4543 26.364C15.2132 26.6051 14.8862 26.7405 14.5452 26.7405C14.2042 26.7405 13.8772 26.6051 13.636 26.364C13.3949 26.1228 13.2595 25.7958 13.2595 25.4548C13.2595 25.1138 13.3949 24.7868 13.636 24.5457L18.1817 20L13.636 15.4543C13.3949 15.2132 13.2595 14.8862 13.2595 14.5452C13.2595 14.2042 13.3949 13.8772 13.636 13.636C13.8772 13.3949 14.2042 13.2595 14.5452 13.2595C14.8862 13.2595 15.2132 13.3949 15.4543 13.636L20 18.1817L24.5457 13.636C24.7868 13.3949 25.1138 13.2595 25.4548 13.2595C25.7958 13.2595 26.1228 13.3949 26.364 13.636C26.6051 13.8772 26.7405 14.2042 26.7405 14.5452C26.7405 14.8862 26.6051 15.2132 26.364 15.4543Z" fill="#FAFAFA"/>
</g>
<defs>
<clipPath id="clip0_4486_75409">
<rect width="20" height="20" fill="white" transform="translate(10 10)"/>
</clipPath>
</defs>
</svg>
