<svg width="24" height="24" viewBox="0 0 24 24" fill="none" xmlns="http://www.w3.org/2000/svg">
<g clip-path="url(#clip0_115_21003)">
<path fill-rule="evenodd" clip-rule="evenodd" d="M12.2 13.8333H18.8V7.21495L16.4891 5.16667L12.2 5.16667L12.2 13.8333ZM18.8 16H12.2C10.985 16 10 15.03 10 13.8333V5.16667C10 3.97005 10.985 3 12.2 3H16.4891C17.0326 3 17.5569 3.19813 17.9608 3.5562L20.2717 5.60448C20.7353 6.01537 21 6.60073 21 7.21495V13.8333C21 15.03 20.015 16 18.8 16Z" fill="black"/>
<path fill-rule="evenodd" clip-rule="evenodd" d="M6.5 8.30769C5.85567 8.30769 5.33333 8.82429 5.33333 9.46154V17.5385C5.33333 18.1757 5.85567 18.6923 6.5 18.6923H13.5C14.1443 18.6923 14.6667 18.1757 14.6667 17.5385V16.2198H17V17.5385C17 19.4502 15.433 21 13.5 21H6.5C4.567 21 3 19.4502 3 17.5385V9.46154C3 7.54978 4.567 6 6.5 6H10V8.30769H6.5Z" fill="black"/>
</g>
<defs>
<clipPath id="clip0_115_21003">
<rect width="18" height="18" fill="white" transform="translate(3 3)"/>
</clipPath>
</defs>
</svg>
