<svg width="24" height="24" viewBox="0 0 24 24" fill="none" xmlns="http://www.w3.org/2000/svg">
<path d="M11.1083 4.80028C10.6274 4.80024 10.1513 4.8964 9.70812 5.08308C9.26495 5.26977 8.86368 5.5432 8.52795 5.88726C8.19222 6.23132 7.92884 6.63905 7.75331 7.08641C7.57778 7.53377 7.49367 8.01171 7.50594 8.49206C7.51075 8.69523 7.44661 8.89404 7.32394 9.05615C7.20126 9.21825 7.02729 9.33411 6.83032 9.38485C6.19528 9.55105 5.64242 9.94237 5.27488 10.4858C4.90734 11.0293 4.75021 11.6877 4.8328 12.3384C4.9154 12.989 5.23207 13.5875 5.72376 14.022C6.21544 14.4566 6.84857 14.6977 7.50504 14.7002H8.40585C8.64477 14.7002 8.87389 14.795 9.04283 14.9638C9.21176 15.1326 9.30667 15.3615 9.30667 15.6002C9.30667 15.8389 9.21176 16.0678 9.04283 16.2366C8.87389 16.4054 8.64477 16.5002 8.40585 16.5002H7.50504C6.46757 16.5004 5.46184 16.1428 4.65778 15.4878C3.85373 14.8328 3.30066 13.9205 3.09202 12.9052C2.88339 11.8898 3.03198 10.8337 3.5127 9.91514C3.99342 8.9966 4.77679 8.27203 5.73043 7.86386C5.84402 6.72633 6.31603 5.65417 7.07847 4.80176C7.84091 3.94935 8.85445 3.36068 9.97314 3.12051C11.0918 2.88035 12.2579 3.00108 13.3036 3.46533C14.3492 3.92957 15.2204 4.71338 15.7917 5.70388C17.2057 5.75529 18.5431 6.35864 19.5168 7.38436C20.4905 8.41008 21.0227 9.77638 20.9993 11.1898C20.9758 12.6033 20.3985 13.9512 19.3913 14.9441C18.3841 15.937 17.0273 16.4957 15.6124 16.5002C15.3735 16.5002 15.1444 16.4054 14.9754 16.2366C14.8065 16.0678 14.7116 15.8389 14.7116 15.6002C14.7116 15.3615 14.8065 15.1326 14.9754 14.9638C15.1444 14.795 15.3735 14.7002 15.6124 14.7002C16.0976 14.6995 16.5776 14.6009 17.0238 14.4103C17.4699 14.2198 17.8729 13.9411 18.2086 13.5912C18.5443 13.2412 18.8058 12.8271 18.9775 12.3737C19.1491 11.9202 19.2273 11.4369 19.2074 10.9525C19.1875 10.4682 19.0699 9.99286 18.8616 9.55503C18.6533 9.11721 18.3587 8.72591 17.9954 8.40462C17.6321 8.08332 17.2076 7.83864 16.7473 7.68525C16.2871 7.53186 15.8005 7.47292 15.3169 7.51197C15.1293 7.52721 14.9415 7.48332 14.7801 7.38647C14.6187 7.28961 14.4917 7.14465 14.417 6.97197C14.1378 6.32688 13.6758 5.77752 13.0878 5.39163C12.4999 5.00573 11.8118 4.80017 11.1083 4.80028ZM12.0091 10.2003C12.248 10.2003 12.4772 10.2951 12.6461 10.4639C12.815 10.6326 12.9099 10.8616 12.9099 11.1002V17.9276L13.1739 17.6639C13.3438 17.5 13.5713 17.4093 13.8075 17.4113C14.0437 17.4134 14.2696 17.508 14.4367 17.6749C14.6037 17.8417 14.6984 18.0675 14.7005 18.3034C14.7025 18.5394 14.6117 18.7668 14.4476 18.9365L12.646 20.7365C12.4771 20.9052 12.248 21 12.0091 21C11.7703 21 11.5412 20.9052 11.3722 20.7365L9.57061 18.9365C9.48457 18.8535 9.41595 18.7542 9.36874 18.6444C9.32153 18.5346 9.29668 18.4165 9.29564 18.297C9.2946 18.1775 9.31739 18.059 9.36268 17.9484C9.40798 17.8377 9.47487 17.7373 9.55945 17.6528C9.64403 17.5683 9.7446 17.5014 9.85531 17.4562C9.96602 17.4109 10.0846 17.3881 10.2042 17.3892C10.3239 17.3902 10.4421 17.4151 10.552 17.4622C10.6619 17.5094 10.7613 17.578 10.8444 17.6639L11.1083 17.9276V11.1002C11.1083 10.8616 11.2032 10.6326 11.3722 10.4639C11.5411 10.2951 11.7702 10.2003 12.0091 10.2003Z" fill="black"/>
</svg>
