<svg width="24" height="24" viewBox="0 0 24 24" fill="none" xmlns="http://www.w3.org/2000/svg">
<path d="M5.77778 16.8837H18.2222V10.4009C18.2222 6.78884 15.4364 3.86047 12 3.86047C8.56356 3.86047 5.77778 6.78884 5.77778 10.4009V16.8837ZM12 2C16.4178 2 20 5.76093 20 10.4009V17.7442C20 18.2965 19.5523 18.7442 19 18.7442H5C4.44772 18.7442 4 18.2965 4 17.7442V10.4009C4 5.76093 7.58222 2 12 2ZM9.77778 19.6744H14.2222C14.2222 20.2912 13.9881 20.8827 13.5713 21.3189C13.1546 21.755 12.5894 22 12 22C11.4106 22 10.8454 21.755 10.4287 21.3189C10.0119 20.8827 9.77778 20.2912 9.77778 19.6744Z" fill="#16A75C"/>
<circle cx="18" cy="4" r="4" fill="#F44336"/>
</svg>
