<svg width="24" height="24" viewBox="0 0 24 24" fill="none" xmlns="http://www.w3.org/2000/svg">
<path d="M8.08033 3.74704C8.15835 3.52833 8.30214 3.33911 8.49197 3.20536C8.6818 3.07161 8.90837 2.99988 9.14059 3H14.9486C15.1269 2.99999 15.3026 3.04234 15.4612 3.12355C15.6199 3.20476 15.757 3.32251 15.8613 3.4671C15.9655 3.61169 16.0339 3.77898 16.0608 3.95518C16.0877 4.13139 16.0724 4.31147 16.0161 4.48058L14.7092 8.40031H18.2734C19.2662 8.40031 19.772 9.59467 19.0807 10.3084L9.12529 20.5834C8.17663 21.5626 6.54034 20.6788 6.83826 19.3485L7.98132 14.247L6.56824 14.2416C6.31654 14.2405 6.06877 14.1791 5.84568 14.0626C5.6226 13.946 5.43069 13.7777 5.28605 13.5717C5.14141 13.3657 5.04824 13.1281 5.01434 12.8786C4.98045 12.6292 5.00683 12.3753 5.09126 12.1382L8.08033 3.74704ZM9.299 4.35008L6.36303 12.5909C6.35095 12.6248 6.34716 12.661 6.35197 12.6967C6.35678 12.7323 6.37005 12.7662 6.39067 12.7957C6.4113 12.8251 6.43867 12.8492 6.4705 12.8658C6.50233 12.8825 6.5377 12.8913 6.57364 12.8916L8.82557 12.9006C8.92654 12.9009 9.02614 12.924 9.11702 12.968C9.20791 13.0119 9.28778 13.0757 9.35074 13.1547C9.4137 13.2336 9.45815 13.3257 9.48081 13.4241C9.50348 13.5225 9.50379 13.6247 9.48171 13.7232L8.15593 19.6437L17.7415 9.75038H13.7722C13.6654 9.75016 13.5602 9.72458 13.4652 9.67576C13.3701 9.62694 13.2881 9.55626 13.2257 9.46954C13.1633 9.38282 13.1224 9.28253 13.1063 9.17692C13.0902 9.0713 13.0995 8.96339 13.1332 8.86203L14.6363 4.35008H9.299Z" fill="white"/>
</svg>
