<svg width="24" height="24" viewBox="0 0 24 24" fill="none" xmlns="http://www.w3.org/2000/svg">
<path d="M8.00002 14.571L6.17702 12.835C6.0248 12.6901 5.84486 12.5775 5.648 12.504C5.45115 12.4305 5.24146 12.3976 5.03154 12.4072C4.82163 12.4168 4.61583 12.4688 4.42653 12.56C4.23723 12.6512 4.06834 12.7798 3.93002 12.938V12.938C3.67519 13.2289 3.53763 13.6041 3.5441 13.9907C3.55057 14.3774 3.7006 14.7478 3.96501 15.03L9.90701 21.368C10.286 21.771 10.813 22 11.366 22H16C18.4 22 20 20 20 18V9.429" stroke="black" stroke-width="1.5" stroke-linecap="round" stroke-linejoin="round"/>
<path d="M17 10V9.429C17 7.143 20 7.143 20 9.429M14 10V8.286C14 6 17 6 17 8.286V10M11 10V7.5C11 5.214 14 5.214 14 7.5V10M8 14.571V3.5C8 3.10218 8.15804 2.72064 8.43934 2.43934C8.72064 2.15804 9.10218 2 9.5 2V2C10.328 2 11 2.67 11 3.499V10" stroke="black" stroke-width="1.5" stroke-linecap="round" stroke-linejoin="round"/>
</svg>
