<svg width="24" height="24" viewBox="0 0 24 24" fill="none" xmlns="http://www.w3.org/2000/svg">
<path d="M20.8889 22H3.11111C2.81643 22 2.53381 21.8829 2.32544 21.6746C2.11706 21.4662 2 21.1836 2 20.8889V12.7778C2.00002 12.6196 2.03384 12.4632 2.09918 12.3191C2.16452 12.175 2.25988 12.0465 2.37889 11.9422L4.22222 10.3333V3.11111C4.22222 2.81643 4.33929 2.53381 4.54766 2.32544C4.75603 2.11706 5.03865 2 5.33333 2H20.8889C21.1836 2 21.4662 2.11706 21.6746 2.32544C21.8829 2.53381 22 2.81643 22 3.11111V20.8889C22 21.1836 21.8829 21.4662 21.6746 21.6746C21.4662 21.8829 21.1836 22 20.8889 22ZM8.66667 6.81C8.93569 6.81031 9.19547 6.90822 9.39778 7.08556L14.9533 11.9467C15.072 12.0503 15.1672 12.1781 15.2327 12.3213C15.2983 12.4646 15.3325 12.6202 15.3333 12.7778V19.7778H19.7778V4.22222H6.44444V8.38889L7.93444 7.08444C8.1372 6.90726 8.3974 6.80974 8.66667 6.81ZM7.55556 16.4444H9.77778V19.7778H13.1111V13.2856L8.66667 9.39667L4.22222 13.2856V19.7778H7.55556V16.4444Z" fill="black"/>
</svg>
