<svg width="24" height="24" viewBox="0 0 24 24" fill="none" xmlns="http://www.w3.org/2000/svg">
<path d="M13.8 10.8C13.8002 11.1724 13.6849 11.5357 13.47 11.8398C13.255 12.1439 12.9511 12.3739 12.6 12.498V15C12.6 15.1591 12.5368 15.3117 12.4243 15.4243C12.3117 15.5368 12.1591 15.6 12 15.6C11.8409 15.6 11.6883 15.5368 11.5757 15.4243C11.4632 15.3117 11.4 15.1591 11.4 15V12.498C11.0889 12.388 10.814 12.1946 10.6054 11.939C10.3968 11.6834 10.2625 11.3753 10.2171 11.0485C10.1717 10.7216 10.2171 10.3886 10.3481 10.0858C10.4792 9.78304 10.691 9.52209 10.9604 9.33152C11.2297 9.14095 11.5463 9.02808 11.8755 9.00526C12.2046 8.98243 12.5337 9.05052 12.8268 9.20209C13.1199 9.35365 13.3657 9.58286 13.5373 9.86467C13.709 10.1465 13.7998 10.47 13.8 10.8ZM12.3324 2.5008C12.2339 2.43527 12.1183 2.40031 12 2.40031C11.8817 2.40031 11.7661 2.43527 11.6676 2.5008C9.40216 4.02803 6.81974 5.02137 4.1148 5.406C3.97188 5.4265 3.84115 5.49785 3.74658 5.60696C3.65202 5.71607 3.59998 5.85562 3.6 6V11.4C3.6 16.0692 6.3684 19.476 11.784 21.5604C11.923 21.614 12.077 21.614 12.216 21.5604C17.6316 19.476 20.4 16.068 20.4 11.4V6C20.4 5.85544 20.3478 5.71575 20.253 5.60661C20.1582 5.49748 20.0271 5.42624 19.884 5.406C17.1795 5.02119 14.5975 4.02787 12.3324 2.5008ZM4.8 6.5136C7.17723 6.11097 9.45712 5.26334 11.52 4.0152L12 3.7164L12.48 4.0152C14.5429 5.26334 16.8228 6.11097 19.2 6.5136V11.4C19.2 15.4704 16.8384 18.4356 12 20.3556C7.1616 18.4356 4.8 15.4704 4.8 11.4V6.5136Z" fill="#069550" stroke="#069550" stroke-width="0.4"/>
<path d="M13.8 10.8C13.8002 11.1724 13.6849 11.5357 13.47 11.8398C13.255 12.1439 12.9511 12.3739 12.6 12.498V15C12.6 15.1591 12.5368 15.3117 12.4243 15.4243C12.3117 15.5368 12.1591 15.6 12 15.6C11.8409 15.6 11.6883 15.5368 11.5757 15.4243C11.4632 15.3117 11.4 15.1591 11.4 15V12.498C11.0889 12.388 10.814 12.1946 10.6054 11.939C10.3968 11.6834 10.2625 11.3753 10.2171 11.0485C10.1717 10.7216 10.2171 10.3886 10.3481 10.0858C10.4792 9.78304 10.691 9.52209 10.9604 9.33152C11.2297 9.14095 11.5463 9.02809 11.8755 9.00526C12.2046 8.98243 12.5337 9.05052 12.8268 9.20209C13.1199 9.35365 13.3657 9.58286 13.5373 9.86467C13.709 10.1465 13.7998 10.47 13.8 10.8Z" fill="#FFA600" stroke="#FFA600" stroke-width="0.4"/>
<rect width="7.56901" height="6.5625" transform="translate(13 15)" fill="white"/>
<path d="M18.075 17.5438L17.0125 16.4937L17.3625 16.1438C17.4583 16.0479 17.5761 16 17.7158 16C17.8553 16 17.9729 16.0479 18.0687 16.1438L18.4187 16.4937C18.5146 16.5896 18.5646 16.7052 18.5687 16.8407C18.5729 16.9761 18.5271 17.0917 18.4313 17.1875L18.075 17.5438ZM14.25 20.5625C14.1792 20.5625 14.1198 20.5385 14.072 20.4905C14.024 20.4427 14 20.3833 14 20.3125V19.6062C14 19.5729 14.0063 19.5407 14.0188 19.5095C14.0313 19.4782 14.05 19.45 14.075 19.425L16.65 16.85L17.7125 17.9125L15.1375 20.4875C15.1125 20.5125 15.0844 20.5312 15.0532 20.5437C15.0219 20.5562 14.9896 20.5625 14.9562 20.5625H14.25Z" fill="#111111"/>
</svg>
