<svg width="111" height="179" viewBox="0 0 111 179" fill="none" xmlns="http://www.w3.org/2000/svg">
<path d="M5.16505 154.089C45.8746 141.026 74.9698 123.901 87.2729 110.351C100.395 95.8749 101.666 84.4505 101.916 81.5054C102.961 69.3923 98.1272 59.6662 95.2533 54.8684C106.595 69.6654 109.207 82.9542 109.908 90.3884C113.031 123.973 88.0805 159.267 47.0503 178.268L5.16505 154.089Z" fill="#FFCC2A"/>
<path d="M53.0951 63.9415L87.2256 45.8431C91.6643 49.5641 95.2749 54.1732 97.825 59.3737C100.375 64.5743 101.808 70.2511 102.032 76.0389C102.255 81.8267 101.265 87.5972 99.124 92.979C96.983 98.3609 93.739 103.235 89.6007 107.287C89.6007 106.587 89.6007 105.862 89.6007 105.15C89.5892 95.0105 85.8718 85.225 79.1483 77.6355C72.4249 70.0459 63.1591 65.1756 53.0951 63.9415Z" fill="#FBAE17"/>
<path d="M105.728 24.3126C65.0062 37.3758 35.911 54.5004 23.6198 68.0505C10.4972 82.5268 9.23843 93.9511 9.03655 96.8963C7.9915 109.009 12.8249 118.736 15.6988 123.533C4.28631 108.736 1.68555 95.4475 0.984893 88.0133C-2.15027 54.441 22.8122 19.1349 63.8424 0.133926L105.728 24.3126Z" fill="#16A75C"/>
<path d="M57.7976 114.46L23.6672 132.559C19.2284 128.838 15.6178 124.228 13.0678 119.028C10.5177 113.827 9.08475 108.151 8.86102 102.363C8.6373 96.575 9.62779 90.8045 11.7688 85.4226C13.9097 80.0407 17.1537 75.1667 21.292 71.1142C21.292 71.8148 21.292 72.5392 21.292 73.2518C21.2882 83.3955 25.0002 93.1892 31.7265 100.782C38.4528 108.375 47.7275 113.241 57.7976 114.46Z" fill="#029348"/>
<circle cx="52.9762" cy="88.0133" r="11.8756" fill="#01B4EE"/>
</svg>
