<svg width="24" height="24" viewBox="0 0 24 24" fill="none" xmlns="http://www.w3.org/2000/svg">
<g clip-path="url(#clip0_480_23979)">
<path d="M9.30257 21C8.47639 20.996 7.65925 20.8278 6.89871 20.505C6.13818 20.1823 5.44943 19.7115 4.87257 19.12C4.30003 18.5774 3.84012 17.9271 3.51915 17.2066C3.19818 16.486 3.02245 15.7092 3.00201 14.9206C2.98158 14.1321 3.11684 13.3472 3.40007 12.611C3.68329 11.8747 4.10891 11.2016 4.65257 10.63L12.0126 3.2C12.4056 2.80768 12.8741 2.49907 13.3897 2.29283C13.9053 2.08658 14.4574 1.98697 15.0126 2C15.6073 2.00202 16.1956 2.12244 16.7433 2.35422C17.291 2.586 17.7871 2.92451 18.2026 3.35C19.0296 4.14624 19.5091 5.23651 19.5372 6.38418C19.5653 7.53184 19.1396 8.64426 18.3526 9.48L10.9526 16.91C10.7156 17.1486 10.4335 17.3378 10.1228 17.4665C9.81208 17.5953 9.4789 17.661 9.14257 17.66C8.77924 17.6605 8.41951 17.5882 8.08459 17.4473C7.74967 17.3065 7.44636 17.1 7.19257 16.84C6.6853 16.3489 6.39234 15.6774 6.37736 14.9714C6.36238 14.2655 6.62659 13.5822 7.11257 13.07L13.9426 6.21C14.137 6.0809 14.3704 6.02385 14.6024 6.04871C14.8344 6.07358 15.0504 6.1788 15.213 6.34616C15.3756 6.51352 15.4746 6.73247 15.4928 6.96511C15.511 7.19774 15.4472 7.42941 15.3126 7.62L8.48257 14.48C8.36868 14.6172 8.31324 14.7937 8.32821 14.9714C8.34317 15.1491 8.42733 15.3138 8.56257 15.43C8.70328 15.5717 8.89297 15.654 9.09257 15.66C9.1665 15.6611 9.23992 15.6475 9.30857 15.62C9.37722 15.5925 9.43976 15.5518 9.49257 15.5L16.8826 8.07C17.2974 7.60918 17.5142 7.00363 17.4861 6.38425C17.458 5.76487 17.1874 5.18141 16.7326 4.76C16.3102 4.32144 15.7357 4.06146 15.1275 4.03356C14.5192 4.00566 13.9234 4.21195 13.4626 4.61L6.07257 12C5.71321 12.386 5.43373 12.8392 5.2502 13.3336C5.06666 13.828 4.9827 14.3538 5.00315 14.8808C5.0236 15.4077 5.14805 15.9254 5.36934 16.4041C5.59063 16.8828 5.90439 17.313 6.29257 17.67C6.68185 18.0735 7.14764 18.3955 7.66273 18.6169C8.17783 18.8384 8.73189 18.9551 9.29257 18.96C9.77599 18.9639 10.2554 18.8723 10.7033 18.6904C11.1512 18.5085 11.5588 18.2399 11.9026 17.9L19.2926 10.47C19.3852 10.3768 19.4952 10.3027 19.6164 10.252C19.7376 10.2012 19.8676 10.1749 19.999 10.1744C20.1304 10.174 20.2606 10.1994 20.3822 10.2493C20.5038 10.2991 20.6143 10.3724 20.7076 10.465C20.8008 10.5576 20.8749 10.6676 20.9256 10.7888C20.9763 10.9101 21.0027 11.0401 21.0031 11.1715C21.0036 11.3029 20.9782 11.4331 20.9283 11.5546C20.8785 11.6762 20.8052 11.7868 20.7126 11.88L13.3226 19.31C12.7979 19.844 12.1723 20.2683 11.4822 20.5585C10.7921 20.8486 10.0512 20.9987 9.30257 21Z" fill="black"/>
</g>
<defs>
<clipPath id="clip0_480_23979">
<rect width="20" height="19" fill="white" transform="translate(2 2)"/>
</clipPath>
</defs>
</svg>
