<svg width="24" height="24" viewBox="0 0 24 24" fill="none" xmlns="http://www.w3.org/2000/svg">
<g clip-path="url(#clip0_480_23993)">
<path fill-rule="evenodd" clip-rule="evenodd" d="M4.5 5.57143C3.83696 5.57143 3.20107 5.84235 2.73223 6.32458C2.26339 6.80682 2 7.46087 2 8.14286V18.4286C2 19.1106 2.26339 19.7646 2.73223 20.2468C3.20107 20.7291 3.83696 21 4.5 21H19.5C20.163 21 20.7989 20.7291 21.2678 20.2468C21.7366 19.7646 22 19.1106 22 18.4286V8.14286C22 7.46087 21.7366 6.80682 21.2678 6.32458C20.7989 5.84235 20.163 5.57143 19.5 5.57143H17.5175C17.186 5.57136 16.8681 5.43585 16.6337 5.19471L15.2325 3.75343C14.7638 3.27116 14.128 3.00015 13.465 3H10.535C9.87201 3.00015 9.23623 3.27116 8.7675 3.75343L7.36625 5.19471C7.13188 5.43585 6.81399 5.57136 6.4825 5.57143H4.5ZM12 17.1429C12.4925 17.1429 12.9801 17.0431 13.4351 16.8492C13.89 16.6554 14.3034 16.3713 14.6517 16.0131C14.9999 15.655 15.2761 15.2297 15.4645 14.7618C15.653 14.2938 15.75 13.7922 15.75 13.2857C15.75 12.7792 15.653 12.2776 15.4645 11.8096C15.2761 11.3417 14.9999 10.9165 14.6517 10.5583C14.3034 10.2001 13.89 9.91602 13.4351 9.72218C12.9801 9.52834 12.4925 9.42857 12 9.42857C11.0054 9.42857 10.0516 9.83495 9.34835 10.5583C8.64509 11.2817 8.25 12.2627 8.25 13.2857C8.25 14.3087 8.64509 15.2898 9.34835 16.0131C10.0516 16.7365 11.0054 17.1429 12 17.1429Z" fill="black"/>
</g>
<defs>
<clipPath id="clip0_480_23993">
<rect width="20" height="18" fill="white" transform="translate(2 3)"/>
</clipPath>
</defs>
</svg>
