<svg width="18" height="18" viewBox="0 0 18 18" fill="none" xmlns="http://www.w3.org/2000/svg">
<path fill-rule="evenodd" clip-rule="evenodd" d="M3.29289 4.29289C3.68342 3.90237 4.31658 3.90237 4.70711 4.29289L8.70711 8.29289C9.09763 8.68342 9.09763 9.31658 8.70711 9.70711L4.70711 13.7071C4.31658 14.0976 3.68342 14.0976 3.29289 13.7071C2.90237 13.3166 2.90237 12.6834 3.29289 12.2929L6.58579 9L3.29289 5.70711C2.90237 5.31658 2.90237 4.68342 3.29289 4.29289Z" fill="#16A75C"/>
<path fill-rule="evenodd" clip-rule="evenodd" d="M9.29289 4.29289C9.68342 3.90237 10.3166 3.90237 10.7071 4.29289L14.7071 8.29289C15.0976 8.68342 15.0976 9.31658 14.7071 9.70711L10.7071 13.7071C10.3166 14.0976 9.68342 14.0976 9.29289 13.7071C8.90237 13.3166 8.90237 12.6834 9.29289 12.2929L12.5858 9L9.29289 5.70711C8.90237 5.31658 8.90237 4.68342 9.29289 4.29289Z" fill="#16A75C"/>
</svg>
