<svg width="24" height="24" viewBox="0 0 24 24" fill="none" xmlns="http://www.w3.org/2000/svg">
<path d="M6.5524 7.50647L3.20575 4.15983C3.14134 4.09755 3.08997 4.02308 3.05465 3.94074C3.01933 3.85841 3.00076 3.76986 3.00002 3.68027C2.99929 3.59068 3.0164 3.50184 3.05037 3.41894C3.08433 3.33603 3.13447 3.26072 3.19785 3.1974C3.26123 3.13408 3.33659 3.08401 3.41952 3.05012C3.50246 3.01624 3.59132 2.99921 3.68091 3.00003C3.7705 3.00085 3.85902 3.0195 3.94133 3.0549C4.02363 3.0903 4.09806 3.14174 4.16027 3.20621L20.8035 19.8495C20.9227 19.9774 20.9876 20.1466 20.9845 20.3214C20.9814 20.4962 20.9106 20.6629 20.787 20.7866C20.6634 20.9102 20.4966 20.981 20.3218 20.9841C20.147 20.9872 19.9778 20.9223 19.8499 20.8031L14.1966 15.1507L8.93284 20.5836C7.98462 21.5624 6.34908 20.6789 6.64686 19.3493L7.7894 14.2501L6.37697 14.2448C6.12539 14.2437 5.87773 14.1823 5.65475 14.0658C5.43176 13.9493 5.23995 13.781 5.09537 13.5751C4.95079 13.3692 4.85767 13.1317 4.82379 12.8824C4.78992 12.6331 4.81628 12.3793 4.90067 12.1423L6.5524 7.50647ZM13.2421 14.1962L7.60857 8.56265L6.17186 12.5948C6.15978 12.6287 6.15599 12.6649 6.1608 12.7005C6.16561 12.7361 6.17887 12.77 6.19949 12.7994C6.2201 12.8289 6.24746 12.8529 6.27928 12.8696C6.3111 12.8863 6.34645 12.8951 6.38237 12.8953L8.63326 12.9043C8.73418 12.9047 8.83373 12.9277 8.92458 12.9717C9.01543 13.0156 9.09526 13.0794 9.15819 13.1583C9.22112 13.2372 9.26555 13.3292 9.28821 13.4276C9.31086 13.5259 9.31116 13.6281 9.2891 13.7266L7.96393 19.6444L13.2421 14.1962ZM17.5451 9.75556L15.1205 12.2575L16.0742 13.212L18.8837 10.3133C19.5746 9.59993 19.069 8.40611 18.0758 8.40611H14.5151L15.8214 4.48819C15.8777 4.31908 15.893 4.13901 15.866 3.96281C15.8391 3.78662 15.7707 3.61935 15.6664 3.47481C15.5621 3.33027 15.4249 3.21259 15.2662 3.13148C15.1075 3.05036 14.9317 3.00814 14.7535 3.00829H8.94813C8.47223 3.00829 8.0485 3.30787 7.88836 3.75499L7.5555 4.69241L8.61077 5.74858L9.10557 4.35775H14.4413L12.9389 8.86762C12.9052 8.96893 12.896 9.0768 12.912 9.18236C12.9281 9.28793 12.969 9.38817 13.0313 9.47485C13.0937 9.56153 13.1757 9.63218 13.2707 9.68098C13.3657 9.72978 13.4709 9.75534 13.5777 9.75556H17.5451Z" fill="white"/>
</svg>
