<svg width="24" height="24" viewBox="0 0 24 24" fill="none" xmlns="http://www.w3.org/2000/svg">
<path fill-rule="evenodd" clip-rule="evenodd" d="M12 7C9.23858 7 7 9.23858 7 12C7 14.7614 9.23858 17 12 17C14.7614 17 17 14.7614 17 12C17 9.23858 14.7614 7 12 7ZM5 12C5 8.13401 8.13401 5 12 5C15.866 5 19 8.13401 19 12C19 15.866 15.866 19 12 19C8.13401 19 5 15.866 5 12Z" fill="black"/>
<path fill-rule="evenodd" clip-rule="evenodd" d="M10.6486 0.999999H13.3114C14.0116 0.989041 14.6938 1.22343 15.2395 1.66274C15.7876 2.10397 16.1632 2.72381 16.3006 3.41388C16.3006 3.41391 16.3006 3.41386 16.3006 3.41388C16.3006 3.41429 16.3007 3.41477 16.3008 3.41518L17.1106 7.46388C17.2189 8.00544 16.8677 8.53227 16.3261 8.64058C15.7845 8.74889 15.2577 8.39768 15.1494 7.85612L14.3391 3.80482C14.2934 3.57462 14.1682 3.36784 13.9854 3.22067C13.8026 3.0735 13.5738 2.99532 13.3391 2.99982L13.32 3H10.64L10.6208 2.99982C10.3862 2.99532 10.1574 3.0735 9.9746 3.22067C9.79241 3.36733 9.66741 3.5732 9.6213 3.80245L8.84194 7.84912C8.7375 8.39144 8.21319 8.7464 7.67087 8.64195C7.12855 8.53751 6.77359 8.0132 6.87803 7.47088L7.65913 3.41518C7.7963 2.72459 8.17201 2.10424 8.72047 1.66274C9.26618 1.22343 9.94834 0.989041 10.6486 0.999999ZM12 9C12.5523 9 13 9.44771 13 10V11.5858L13.7071 12.2929C14.0976 12.6834 14.0976 13.3166 13.7071 13.7071C13.3166 14.0976 12.6834 14.0976 12.2929 13.7071L11.2929 12.7071C11.1053 12.5196 11 12.2652 11 12V10C11 9.44771 11.4477 9 12 9ZM16.4061 15.3294C16.9477 15.4377 17.2989 15.9646 17.1906 16.5061L16.3808 20.5548C16.3808 20.5552 16.3807 20.5556 16.3806 20.556C16.3806 20.556 16.3806 20.5559 16.3806 20.556C16.2432 21.246 15.8676 21.866 15.3195 22.3073C14.7738 22.7466 14.0916 22.981 13.3913 22.97H10.6886C9.98836 22.981 9.30619 22.7466 8.76047 22.3073C8.21216 21.8659 7.83652 21.2458 7.69926 20.5554C7.69922 20.5552 7.6993 20.5556 7.69926 20.5554L6.89941 16.5561C6.79109 16.0146 7.14231 15.4877 7.68387 15.3794C8.22543 15.2711 8.75226 15.6223 8.86057 16.1639L9.66083 20.1652C9.70655 20.3954 9.83178 20.6022 10.0146 20.7493C10.1974 20.8965 10.4262 20.9747 10.6608 20.9702L10.68 20.97H13.4L13.4191 20.9702C13.6538 20.9747 13.8826 20.8965 14.0654 20.7493C14.2482 20.6022 14.3734 20.3954 14.4191 20.1652L15.2294 16.1139C15.3377 15.5723 15.8645 15.2211 16.4061 15.3294Z" fill="black"/>
</svg>
