<svg width="16" height="16" viewBox="0 0 16 16" fill="none" xmlns="http://www.w3.org/2000/svg">
<g clip-path="url(#clip0_78_10025)">
<g clip-path="url(#clip1_78_10025)">
<path fill-rule="evenodd" clip-rule="evenodd" d="M5.17158 3.75736C4.78106 3.36683 4.14789 3.36683 3.75737 3.75736C3.36684 4.14788 3.36684 4.78105 3.75737 5.17157L6.58579 8L3.75736 10.8284C3.36684 11.219 3.36684 11.8521 3.75736 12.2426C4.14789 12.6332 4.78105 12.6332 5.17158 12.2426L8.00001 9.41421L10.8284 12.2426C11.219 12.6332 11.8521 12.6332 12.2426 12.2426C12.6332 11.8521 12.6332 11.219 12.2426 10.8284L9.41422 8L12.2426 5.17157C12.6332 4.78105 12.6332 4.14788 12.2426 3.75736C11.8521 3.36684 11.219 3.36683 10.8284 3.75736L8.00001 6.58579L5.17158 3.75736Z" fill="black"/>
</g>
</g>
<defs>
<clipPath id="clip0_78_10025">
<rect width="16" height="16" fill="white"/>
</clipPath>
<clipPath id="clip1_78_10025">
<rect width="12" height="12" fill="white" transform="translate(-0.485275 8) rotate(-45)"/>
</clipPath>
</defs>
</svg>
